HIERARCHY
ROOT Hips
{
    OFFSET 0.000000 0.000000 0.000000
    CHANNELS 6 Xposition Yposition Zposition Zrotation Xrotation Yrotation
    JOINT Spine
    {
        OFFSET -0.000000 7.246840 0.000000
        CHANNELS 3 Zrotation Xrotation Yrotation
        JOINT Spine1
        {
            OFFSET -0.000000 20.289354 0.000000
            CHANNELS 3 Zrotation Xrotation Yrotation
            JOINT Neck
            {
                OFFSET -0.000000 20.206032 1.836912
                CHANNELS 3 Zrotation Xrotation Yrotation
                JOINT Head
                {
                    OFFSET -0.000000 12.372654 -1.767522
                    CHANNELS 3 Zrotation Xrotation Yrotation
                    End Site
                    {
                        OFFSET -0.000000 22.094025 0.000000
                    }
                }
            }
            JOINT LeftShoulder
            {
                OFFSET 3.465871 17.201674 -0.568930
                CHANNELS 3 Zrotation Xrotation Yrotation
                JOINT LeftArm
                {
                    OFFSET 14.070313 0.000000 0.000000
                    CHANNELS 3 Zrotation Xrotation Yrotation
                    JOINT LeftForeArm
                    {
                        OFFSET 26.549477 0.000000 0.000000
                        CHANNELS 3 Zrotation Xrotation Yrotation
                        JOINT LeftHand
                        {
                            OFFSET 18.880413 0.000000 0.000000
                            CHANNELS 3 Zrotation Xrotation Yrotation
                            End Site
                            {
                                OFFSET 13.256415 0.000000 0.000000
                            }
                        }
                    }
                }
            }
            JOINT RightShoulder
            {
                OFFSET -3.526370 17.201674 -0.568930
                CHANNELS 3 Zrotation Xrotation Yrotation
                JOINT RightArm
                {
                    OFFSET -14.070313 0.000000 0.000000
                    CHANNELS 3 Zrotation Xrotation Yrotation
                    JOINT RightForeArm
                    {
                        OFFSET -26.549477 0.000000 0.000000
                        CHANNELS 3 Zrotation Xrotation Yrotation
                        JOINT RightHand
                        {
                            OFFSET -18.880413 0.000000 0.000000
                            CHANNELS 3 Zrotation Xrotation Yrotation
                            End Site
                            {
                                OFFSET -13.256415 0.000000 0.000000
                            }
                        }
                    }
                }
            }
        }
    }
    JOINT LeftUpLeg
    {
        OFFSET 8.837609 0.000000 0.000000
        CHANNELS 3 Zrotation Xrotation Yrotation
        JOINT LeftLeg
        {
            OFFSET -0.000000 -41.345005 0.000000
            CHANNELS 3 Zrotation Xrotation Yrotation
            JOINT LeftFoot
            {
                OFFSET -0.000000 -35.500874 0.000000
                CHANNELS 3 Zrotation Xrotation Yrotation
                JOINT LeftToeBase
                {
                    OFFSET -0.000000 -5.744446 13.256415
                    CHANNELS 3 Zrotation Xrotation Yrotation
                    End Site
                    {
                        OFFSET -0.000000 0.000000 3.535044
                    }
                }
            }
        }
    }
    JOINT RightUpLeg
    {
        OFFSET -8.837609 0.000000 0.000000
        CHANNELS 3 Zrotation Xrotation Yrotation
        JOINT RightLeg
        {
            OFFSET -0.000000 -41.345005 0.000000
            CHANNELS 3 Zrotation Xrotation Yrotation
            JOINT RightFoot
            {
                OFFSET -0.000000 -35.500874 0.000000
                CHANNELS 3 Zrotation Xrotation Yrotation
                JOINT RightToeBase
                {
                    OFFSET -0.000000 -5.744446 13.256415
                    CHANNELS 3 Zrotation Xrotation Yrotation
                    End Site
                    {
                        OFFSET -0.000000 0.000000 3.535044
                    }
                }
            }
        }
    }
}
MOTION
Frames:    9
Frame Time:    0.010000
2.076126    82.535812    -57.957279    2.409809    1.877681    1.030020    -2.092757    -14.281397    0.516840    -3.827974    0.225453    0.786610    3.268623    32.649223    -4.024407    3.511093    -0.851664    -3.129296    20.537628    -0.130878    5.974101    -29.884279    9.897605    -17.180458    3.983464    -6.137983    1.755239    -23.990122    -4.415324    -8.414235    -17.585619    -1.188444    11.522865    10.191828    10.636993    14.340433    1.116773    -2.737565    -6.382851    4.357561    -1.949491    18.921074    -3.833399    9.296421    0.171781    -2.107127    -10.010901    -3.816267    5.123525    0.235369    -2.156949    -0.739200    -2.604830    1.051476    -5.327879    6.825452    -0.249352    8.328082    -10.226477    1.893785    -4.449609    -0.479795    -10.549038    -0.878166    -0.152057    1.577354    
2.066179    82.535225    -57.959377    2.414577    1.871089    1.049268    -2.265095    -14.293727    0.453443    -3.507919    0.257330    0.745361    3.104437    32.659615    -3.981925    3.475604    -0.873458    -3.116186    20.363672    -0.128279    6.051557    -29.914312    9.889626    -17.181511    4.020535    -6.144934    1.789371    -23.913200    -4.421438    -8.454313    -17.711306    -1.198343    11.574972    10.153870    10.593591    14.322431    1.102803    -2.750153    -6.350691    4.479387    -1.942441    18.931389    -3.829923    9.295979    0.131045    -2.127382    -9.986791    -3.675971    5.114147    0.202176    -2.285973    -0.760832    -2.585612    1.082115    -5.325571    6.829984    -0.247914    8.332472    -10.217996    1.906397    -4.334546    -0.529400    -10.548003    -0.811150    -0.080449    1.455863    
2.060336    82.535866    -57.965004    2.418629    1.856226    1.050554    -2.289810    -14.280483    0.448484    -3.432651    0.259825    0.743154    3.030635    32.673256    -3.967614    3.485347    -0.887851    -3.111008    20.300165    -0.120231    6.061345    -29.913601    9.856018    -17.158356    4.006353    -6.158531    1.783618    -23.805603    -4.440696    -8.464930    -17.761129    -1.192476    11.577398    10.138496    10.567577    14.342690    1.100373    -2.741553    -6.356421    4.645967    -1.907254    18.904184    -3.828324    9.295707    0.142411    -2.146405    -9.955501    -3.658255    5.167157    0.191419    -2.307778    -0.751537    -2.604544    1.069022    -5.323786    6.831743    -0.241601    8.323606    -10.194318    1.918945    -4.541802    -0.511696    -10.580137    -0.887553    -0.006260    1.591706    
2.050513    82.535080    -57.968151    2.424729    1.838710    1.062255    -2.271227    -14.270580    0.455653    -3.474417    0.263803    0.748068    3.065115    32.703384    -3.973382    3.474900    -0.918676    -3.111053    20.330465    -0.125589    6.046747    -29.943695    9.829401    -17.124214    4.007031    -6.137846    1.777226    -23.732145    -4.423503    -8.473925    -17.727135    -1.183685    11.572057    10.120628    10.554951    14.360069    1.107058    -2.730317    -6.368846    4.778654    -1.875054    18.865364    -3.824342    9.294675    0.142663    -2.152432    -9.924582    -3.669699    5.177253    0.180281    -2.310975    -0.760344    -2.612442    1.081602    -5.320383    6.839640    -0.241852    8.323136    -10.177256    1.893968    -4.393096    -0.525617    -10.557281    -0.824677    -0.155170    1.481335    
2.042551    82.535683    -57.967991    2.429447    1.818805    1.081510    -2.288617    -14.272567    0.449125    -3.437191    0.294222    0.744568    3.051334    32.698994    -3.967610    3.459073    -0.915528    -3.109906    20.299471    -0.120987    6.054025    -29.954655    9.788127    -17.118790    4.013142    -6.113342    1.779010    -23.673376    -4.403942    -8.472412    -17.747097    -1.206444    11.579279    10.123732    10.574360    14.351621    1.137280    -2.750800    -6.350167    4.783965    -1.897130    18.772945    -3.814351    9.301050    0.095206    -2.152204    -9.908393    -3.724137    5.222505    0.199704    -2.207786    -0.731218    -2.649900    1.040417    -5.312656    6.851015    -0.237500    8.303119    -10.151397    1.892283    -4.395893    -0.561529    -10.625129    -0.891271    -0.126490    1.600450    
2.035824    82.535095    -57.969864    2.436711    1.797937    1.089236    -2.278037    -14.257635    0.452015    -3.469391    0.292931    0.745831    3.095442    32.723370    -3.973759    3.447057    -0.935176    -3.109542    20.337137    -0.118186    6.049172    -29.981440    9.778014    -17.102259    4.015490    -6.087979    1.795206    -23.654112    -4.374644    -8.500796    -17.719385    -1.195282    11.599337    10.127023    10.567743    14.332993    1.136726    -2.754646    -6.357446    4.854813    -1.889221    18.772289    -3.814423    9.300706    0.068992    -2.181756    -9.857363    -3.590531    5.267387    0.161345    -2.314614    -0.736490    -2.625633    1.047758    -5.315048    6.857286    -0.228515    8.306993    -10.119099    1.874387    -4.301558    -0.611502    -10.572439    -0.793281    -0.106005    1.424188    
2.028085    82.535233    -57.974964    2.442485    1.774769    1.094385    -2.290810    -14.236320    0.450052    -3.438156    0.297465    0.745059    3.077519    32.735432    -3.968372    3.443540    -0.949037    -3.106587    20.318506    -0.135009    6.050119    -29.973082    9.823030    -17.080444    4.019239    -6.092846    1.795596    -23.659918    -4.379172    -8.500621    -17.740488    -1.211829    11.609628    10.170238    10.518865    14.332872    1.207847    -2.612273    -6.311756    4.826597    -1.764673    18.385723    -3.812133    9.297016    0.065046    -2.185476    -9.810819    -3.625681    5.310754    0.155832    -2.269540    -0.713307    -2.668067    1.015049    -5.316122    6.857265    -0.209697    8.304756    -10.079150    1.856390    -4.331027    -0.645307    -10.597887    -0.808771    -0.102401    1.451938    
2.020581    82.536446    -57.973473    2.447924    1.748397    1.115995    -2.313452    -14.222039    0.442983    -3.406721    0.307398    0.740833    3.063627    32.719810    -3.963905    3.475914    -0.916640    -3.100818    20.310595    -0.122922    6.050185    -29.952921    9.859187    -17.089071    3.971334    -6.204679    1.789090    -23.522114    -4.482565    -8.588850    -17.757959    -1.201553    11.606009    10.200562    10.489595    14.335325    1.189334    -2.658369    -6.329886    4.854780    -1.805912    18.411867    -3.799270    9.298550    0.011327    -2.199256    -9.757134    -3.619912    5.326799    0.137633    -2.233573    -0.740875    -2.558516    1.053552    -5.315221    6.869320    -0.216493    8.304709    -10.033257    1.867314    -4.325343    -0.677326    -10.630678    -0.822472    -0.108674    1.476633    
2.011704    82.537025    -57.973183    2.457889    1.723807    1.133132    -2.313933    -14.216719    0.443633    -3.419850    0.340257    0.742397    3.041765    32.722389    -3.953589    3.527635    -0.939970    -3.085081    20.322231    -0.149194    6.032313    -29.952406    9.882432    -17.051985    4.020631    -6.159963    1.786628    -23.714279    -4.434936    -8.534056    -17.742825    -1.180723    11.588315    10.189087    10.512946    14.350270    1.174932    -2.710428    -6.326416    4.925636    -1.847300    18.412985    -3.798123    9.299107    -0.008803    -2.192985    -9.716585    -3.688141    5.353451    0.126567    -2.172412    -0.722245    -2.675380    1.027814    -5.319645    6.879793    -0.196497    8.298937    -9.999489    1.830866    -4.377451    -0.693829    -10.654928    -0.868362    -0.151177    1.559732    
